<svg width="65" height="65" viewBox="0 0 65 65" fill="none" xmlns="http://www.w3.org/2000/svg">
<path d="M42.8409 43.2133V3.60111L51.7045 0V39.6122L42.8409 43.2133ZM59.0909 52.5762V9.27285C60.125 9.753 61.1345 10.2632 62.1193 10.8033C63.1042 11.3435 64.0644 12.0037 65 12.7839V65C62.6856 62.6593 60.1496 60.8431 57.392 59.5515C54.6345 58.2599 51.7538 57.6153 48.75 57.6177C45.7955 57.6177 42.9394 58.2479 40.1818 59.5083C37.4242 60.7687 34.8636 62.5392 32.5 64.8199C30.1364 62.5392 27.5758 60.7687 24.8182 59.5083C22.0606 58.2479 19.2045 57.6177 16.25 57.6177C13.2462 57.6177 10.3655 58.2635 7.60795 59.5551C4.85038 60.8467 2.31439 62.6617 0 65V12.7839C2.36364 10.8033 4.93705 9.37849 7.72023 8.50942C10.5034 7.64035 13.3467 7.20462 16.25 7.20222C19.697 7.20222 23.0336 7.89243 26.26 9.27285C29.4864 10.6533 32.5512 12.4838 35.4545 14.7645V54.1967C37.5227 52.9963 39.6776 52.066 41.9191 51.4058C44.1606 50.7456 46.4376 50.4155 48.75 50.4155C50.5227 50.4155 52.2708 50.5956 53.9943 50.9557C55.7178 51.3158 57.4167 51.856 59.0909 52.5762Z" fill="#E7DB29"/>
</svg>
