<svg width="1440" height="513" viewBox="0 0 1440 513" fill="none" xmlns="http://www.w3.org/2000/svg">
<g clip-path="url(#clip0_236_45)">
<rect width="1440" height="513" transform="matrix(-1 0 0 -1 1440 513)" fill="white" fill-opacity="0.8"/>
<path d="M1440 383.895H1308.8V378.765H1177.6V419.805L1048 419.805H916.8V465.975H785.6V440.325H654.4V373.635H523.2V430.065H392V445.455H262.4V399.285L131.2 399.285V471.105H-2.14577e-05V394.155V513L131.2 513H262.4H392H523.2H654.4H785.6H916.8L1048 513H1177.6H1308.8H1440V383.895Z" fill="white"/>
<path d="M1440 337.725H1308.8V322.335H1177.6V342.855L1048 342.855V373.635H916.8V363.375L785.6 363.375V383.895H654.4V332.595H523.2V337.725H392V378.765H262.4V353.115L131.2 353.115V373.635H-2.14577e-05V322.335V395.865V472.815H131.2V400.995L262.4 400.995V447.165L392 447.165V431.775H523.2V375.345H654.4V442.035L785.6 442.035V467.685H916.8V421.515H1048H1177.6V380.475H1308.8V385.605H1440V337.725Z" fill="#D0E6D7"/>
<path d="M1440 306.945H1308.8V286.425H1177.6V306.945L1048 306.945H916.8V301.815L785.6 301.815V322.335L654.4 322.335V260.775H523.2V291.555H392V317.205H262.4V312.075L131.2 312.075V291.555H-2.14577e-05V250.515V324.045V375.345H131.2V354.825H262.4V380.475L392 380.475V339.435H523.2V334.305H654.4V385.605L785.6 385.605V365.085H916.8V375.345H1048V344.565H1177.6V324.045L1308.8 324.045V339.435H1440V306.945Z" fill="#A1CDB0"/>
<path d="M1440 81.225L1308.8 81.225V214.605L1177.6 214.605V163.305L1048 163.305V188.955H916.8V127.395L785.6 127.395V163.305H654.4V142.785L523.2 142.785L392 142.785V127.395H262.4V168.435L131.2 168.435V219.735H-2.14577e-05V178.695V252.225V293.265H131.2V313.785H262.4V318.915L392 318.915V293.265H523.2V262.485H654.4V324.045L785.6 324.045V303.525H916.8V308.655H1048H1177.6V288.135L1308.8 288.135V308.655H1440V81.225Z" fill="#71B48A"/>
<path d="M1440 -0.854998L1308.8 -0.854998H1177.6L1048 -0.854998H916.8L785.6 -0.854998H654.4L523.2 -0.854998L392 -0.854998H262.4L131.2 -0.854998H-2.14577e-05V180.405V221.445H131.2V170.145L262.4 170.145V129.105L392 129.105V144.495H523.2H654.4V165.015L785.6 165.015V129.105L916.8 129.105V190.665H1048V165.015L1177.6 165.015V216.315H1308.8V82.935L1440 82.935V-0.854998Z" fill="#3B9A66"/>
</g>
<defs>
<clipPath id="clip0_236_45">
<rect width="1440" height="513" fill="white" transform="matrix(-1 0 0 -1 1440 513)"/>
</clipPath>
</defs>
</svg>
