<svg width="65" height="65" viewBox="0 0 65 65" fill="none" xmlns="http://www.w3.org/2000/svg">
<path d="M19.3333 65H6.66667C4.83333 65 3.26444 64.3478 1.96 63.0433C0.655556 61.7389 0.00222222 60.1689 0 58.3333V45.6667C2.66667 45.6667 5 44.82 7 43.1267C9 41.4333 10 39.28 10 36.6667C10 34.0533 9 31.9011 7 30.21C5 28.5189 2.66667 27.6711 0 27.6667V15C0 13.1667 0.653334 11.5978 1.96 10.2933C3.26667 8.98889 4.83556 8.33555 6.66667 8.33333H20C20 6 20.8056 4.02778 22.4167 2.41667C24.0278 0.805555 26 0 28.3333 0C30.6667 0 32.6389 0.805555 34.25 2.41667C35.8611 4.02778 36.6667 6 36.6667 8.33333H50C51.8333 8.33333 53.4033 8.98667 54.71 10.2933C56.0167 11.6 56.6689 13.1689 56.6667 15V28.3333C59 28.3333 60.9722 29.1389 62.5833 30.75C64.1944 32.3611 65 34.3333 65 36.6667C65 39 64.1944 40.9722 62.5833 42.5833C60.9722 44.1944 59 45 56.6667 45V58.3333C56.6667 60.1667 56.0144 61.7367 54.71 63.0433C53.4056 64.35 51.8356 65.0022 50 65H37.3333C37.3333 62.2222 36.4589 59.8611 34.71 57.9167C32.9611 55.9722 30.8356 55 28.3333 55C25.8311 55 23.7067 55.9722 21.96 57.9167C20.2133 59.8611 19.3378 62.2222 19.3333 65Z" fill="#B84141"/>
</svg>
