<svg width="65" height="65" viewBox="0 0 65 65" fill="none" xmlns="http://www.w3.org/2000/svg">
<path d="M55.0342 24.922C52.1566 26.6553 49.0885 27.7545 45.8301 28.2195C42.5716 28.6846 40.1172 28.4098 38.4668 27.3951C38.4245 27.3951 38.2869 27.3106 38.0542 27.1415C37.8215 26.9724 37.5781 26.8138 37.3242 26.6659C37.0703 26.5179 36.8164 26.4439 36.5625 26.4439V44.2C38.4245 42.0439 40.5404 40.2472 42.9102 38.8098C44.222 38.0065 45.7349 37.4252 47.4487 37.0659C49.1626 36.7065 50.7812 36.548 52.3047 36.5902C53.8281 36.6325 55.2563 36.7276 56.5894 36.8756C57.9224 37.0236 58.9697 37.2033 59.7314 37.4146L60.9375 37.6683C60.8105 37.922 60.6095 38.2602 60.3345 38.6829C60.0594 39.1057 59.4987 39.8984 58.6523 41.061C57.806 42.2236 56.9385 43.3333 56.0498 44.3902C55.1611 45.4472 54.0503 46.578 52.7173 47.7829C51.3843 48.9878 50.0618 49.9919 48.75 50.7951C43.2487 54.0927 39.1862 55.826 36.5625 55.9951V60.9415C36.5625 62.0406 36.1711 62.9919 35.3882 63.7951C34.6053 64.5984 33.6426 65 32.5 65C31.3574 65 30.3947 64.5984 29.6118 63.7951C28.8289 62.9919 28.4375 62.0406 28.4375 60.9415V56.7561C26.4486 57.0098 24.1317 56.8195 21.4868 56.1854C18.842 55.5512 16.3981 54.5789 14.1553 53.2683C12.8434 52.5073 11.5951 51.461 10.4102 50.1293C9.22526 48.7976 8.26253 47.4659 7.52197 46.1341C6.78141 44.8024 6.13607 43.5024 5.58594 42.2341C5.03581 40.9659 4.64437 39.9618 4.41162 39.222C4.17887 38.4821 4.0625 38.0911 4.0625 38.0488C4.40104 37.9219 4.84538 37.7846 5.39551 37.6366C5.94564 37.4886 7.01416 37.2772 8.60107 37.0024C10.188 36.7276 11.7114 36.5797 13.1714 36.5585C14.6313 36.5374 16.2288 36.7276 17.9639 37.1293C19.6989 37.5309 21.18 38.1967 22.4072 39.1268C23.6344 40.0569 25.6445 42.6146 28.4375 46.8V30.5024C28.1836 30.5024 27.9297 30.5764 27.6758 30.7244C27.4219 30.8724 27.1785 31.0309 26.9458 31.2C26.7131 31.3691 26.5755 31.4748 26.5332 31.5171C24.8828 32.4894 22.4284 32.7431 19.1699 32.278C15.9115 31.813 12.8434 30.7138 9.96582 28.9805C8.65397 28.1772 7.4056 27.078 6.2207 25.6829C5.03581 24.2878 4.09424 22.9561 3.396 21.6878C2.69775 20.4195 2.06299 19.0561 1.4917 17.5976C0.92041 16.139 0.55013 15.135 0.380859 14.5854C0.211589 14.0358 0.0846354 13.613 0 13.3171C0.296224 13.2325 0.708822 13.1268 1.23779 13C1.76676 12.8732 2.79297 12.7146 4.31641 12.5244C5.83984 12.3341 7.2998 12.2285 8.69629 12.2073C10.0928 12.1862 11.6691 12.3553 13.4253 12.7146C15.1815 13.074 16.7155 13.6553 18.0273 14.4585C20.651 16.0228 22.9256 17.9146 24.8511 20.1341C26.7765 22.3537 27.972 24.4569 28.4375 26.4439V16.2341C28.4375 16.1496 28.4587 15.9805 28.501 15.7268C26.5967 15.2195 24.8828 14.4585 23.3594 13.4439C21.8783 12.4293 20.5452 10.8756 19.3604 8.78293C18.1755 6.69024 17.3714 4.84065 16.9482 3.23415L16.25 0.82439C16.4616 0.782114 16.7578 0.70813 17.1387 0.602439C17.5195 0.496748 18.2495 0.369919 19.3286 0.221951C20.4077 0.0739837 21.4445 0 22.439 0C23.4334 0 24.5654 0.137398 25.835 0.412195C27.1045 0.686992 28.2048 1.14146 29.1357 1.77561C31.2093 3.12846 32.9655 4.8935 34.4043 7.07073C35.8431 9.24797 36.5625 10.9496 36.5625 12.1756V22.3854C37.028 20.3984 38.2235 18.2951 40.1489 16.0756C42.0744 13.8561 44.349 11.9642 46.9727 10.4C48.2845 9.59675 49.7974 9.01545 51.5112 8.6561C53.2251 8.29675 54.8438 8.13821 56.3672 8.18049C57.8906 8.22276 59.3188 8.31789 60.6519 8.46585C61.9849 8.61382 63.0322 8.77236 63.7939 8.94146L65 9.25854C64.9154 9.55447 64.799 9.96667 64.6509 10.4951C64.5028 11.0236 64.1325 12.0276 63.54 13.5073C62.9476 14.987 62.3022 16.361 61.604 17.6293C60.9058 18.8976 59.9642 20.2293 58.7793 21.6244C57.5944 23.0195 56.346 24.1187 55.0342 24.922Z" fill="#3B9A66"/>
</svg>
