<svg width="65" height="65" viewBox="0 0 65 65" fill="none" xmlns="http://www.w3.org/2000/svg">
<path d="M32.5 40.1607L38.4583 43.7202C39.0258 44.0814 39.5809 44.069 40.1236 43.6831C40.6663 43.2972 40.8592 42.7679 40.7024 42.0952L39.1548 35.3631L44.4167 30.7976C44.9325 30.3333 45.0873 29.7793 44.881 29.1355C44.6746 28.4917 44.2103 28.1429 43.4881 28.0893L36.6012 27.5476L33.8929 21.125C33.6349 20.506 33.1706 20.1964 32.5 20.1964C31.8294 20.1964 31.3651 20.506 31.1071 21.125L28.3988 27.5476L21.5119 28.0893C20.7897 28.1409 20.3254 28.4896 20.119 29.1355C19.9127 29.7813 20.0675 30.3354 20.5833 30.7976L25.8452 35.3631L24.2976 42.0952C24.1429 42.7659 24.3368 43.2952 24.8795 43.6831C25.4222 44.071 25.9763 44.0834 26.5417 43.7202L32.5 40.1607ZM22.131 57.2619H13.9286C12.2262 57.2619 10.7694 56.6563 9.55809 55.445C8.34682 54.2337 7.74016 52.7759 7.7381 51.0714V42.869L1.77976 36.8333C1.2123 36.2143 0.773809 35.5313 0.464286 34.7843C0.154762 34.0373 0 33.2759 0 32.5C0 31.7241 0.154762 30.9637 0.464286 30.2188C0.773809 29.4739 1.2123 28.7898 1.77976 28.1667L7.7381 22.131V13.9286C7.7381 12.2262 8.34476 10.7694 9.55809 9.55809C10.7714 8.34682 12.2283 7.74016 13.9286 7.7381H22.131L28.1667 1.77976C28.7857 1.2123 29.4698 0.773809 30.2188 0.464286C30.9679 0.154762 31.7283 0 32.5 0C33.2717 0 34.0332 0.154762 34.7843 0.464286C35.5354 0.773809 36.2184 1.2123 36.8333 1.77976L42.869 7.7381H51.0714C52.7738 7.7381 54.2317 8.34476 55.445 9.55809C56.6583 10.7714 57.264 12.2283 57.2619 13.9286V22.131L63.2202 28.1667C63.7877 28.7857 64.2262 29.4698 64.5357 30.2188C64.8452 30.9679 65 31.7283 65 32.5C65 33.2717 64.8452 34.0332 64.5357 34.7843C64.2262 35.5354 63.7877 36.2184 63.2202 36.8333L57.2619 42.869V51.0714C57.2619 52.7738 56.6563 54.2317 55.445 55.445C54.2337 56.6583 52.7759 57.264 51.0714 57.2619H42.869L36.8333 63.2202C36.2143 63.7877 35.5313 64.2262 34.7843 64.5357C34.0373 64.8452 33.2759 65 32.5 65C31.7241 65 30.9637 64.8452 30.2188 64.5357C29.4739 64.2262 28.7898 63.7877 28.1667 63.2202L22.131 57.2619Z" fill="#92C5E1" fill-opacity="0.8"/>
</svg>
